<svg width="184" height="54" viewBox="0 0 184 54" fill="none" xmlns="http://www.w3.org/2000/svg">
<g clip-path="url(#clip0_666_3257)">
<path d="M51.915 52.515L0.648438 19.9028V1.48499L51.915 33.66V52.515Z" fill="#15A1DA"/>
<path d="M26.0656 1.48499L51.9022 17.9228V1.48499H26.0656Z" fill="#62C3E9"/>
<path d="M72.671 13.1207H75.0597L80.5537 20.34V13.1207H83.136V24.8464H80.9346L75.2275 17.3893V24.8464H72.6451L72.671 13.1207Z" fill="#0F2230"/>
<path d="M92.1743 19.0157C92.1731 18.2031 92.3359 17.3986 92.6531 16.65C92.9703 15.9013 93.4354 15.2238 94.0208 14.6577C94.6062 14.0915 95.2999 13.6484 96.0607 13.3545C96.8215 13.0607 97.6339 12.9221 98.4495 12.9471C99.2604 12.9194 100.069 13.0551 100.826 13.3461C101.583 13.6371 102.273 14.0774 102.855 14.6406C103.436 15.2038 103.898 15.8782 104.212 16.6234C104.525 17.3686 104.684 18.1692 104.679 18.9771V19.0157C104.679 19.8278 104.515 20.6314 104.196 21.379C103.878 22.1266 103.412 22.8029 102.826 23.3678C102.24 23.9326 101.546 24.3744 100.786 24.6671C100.025 24.9598 99.2129 25.0973 98.3978 25.0714C97.5855 25.0975 96.7762 24.9597 96.0187 24.6664C95.2612 24.3731 94.571 23.9303 93.9897 23.3646C93.4083 22.799 92.9479 22.1222 92.6359 21.3748C92.3239 20.6275 92.1669 19.825 92.1743 19.0157ZM101.981 19.0157C101.999 18.5385 101.92 18.0625 101.75 17.6162C101.579 17.17 101.319 16.7627 100.986 16.4188C100.654 16.0748 100.254 15.8013 99.813 15.6146C99.3716 15.4279 98.8968 15.3318 98.4172 15.3321C97.941 15.3291 97.4692 15.4224 97.0304 15.6066C96.5916 15.7907 96.195 16.0618 95.8647 16.4034C95.5344 16.7449 95.2773 17.1497 95.109 17.5933C94.9407 18.0369 94.8648 18.5099 94.8858 18.9836V19.0157C94.8694 19.4835 94.9458 19.9499 95.1106 20.3882C95.2753 20.8266 95.5252 21.2283 95.846 21.5704C96.1668 21.9125 96.5521 22.1883 96.98 22.382C97.4079 22.5757 97.87 22.6835 98.3397 22.6993H98.4495C98.9272 22.6989 99.3998 22.6021 99.8388 22.4147C100.278 22.2272 100.674 21.953 101.004 21.6086C101.333 21.2643 101.589 20.8569 101.756 20.4113C101.923 19.9656 101.997 19.4908 101.974 19.0157H101.981Z" fill="#0F2230"/>
<path d="M113.718 13.1208H119.102C119.722 13.0841 120.343 13.1704 120.929 13.3745C121.516 13.5787 122.055 13.8967 122.517 14.31C122.857 14.6665 123.122 15.0876 123.295 15.5482C123.468 16.0088 123.546 16.4995 123.524 16.9908V17.0229C123.564 17.8222 123.34 18.6124 122.885 19.2722C122.43 19.9319 121.77 20.4245 121.007 20.6743L123.879 24.8593H120.852L118.327 21.105H116.294V24.8593H113.711L113.718 13.1208ZM118.928 18.8165C120.219 18.8165 120.916 18.1415 120.916 17.1579V17.1258C120.916 16.0265 120.141 15.4479 118.883 15.4479H116.3V18.8165H118.928Z" fill="#0F2230"/>
<path d="M132.608 13.1207H137.198C140.904 13.1207 143.454 15.6472 143.454 18.9579V18.9964C143.454 22.2814 140.872 24.8593 137.198 24.8593H132.608V13.1207ZM137.198 22.5C137.669 22.5286 138.14 22.4581 138.581 22.293C139.022 22.1279 139.424 21.872 139.759 21.5419C140.094 21.2119 140.355 20.8151 140.526 20.3776C140.696 19.9401 140.772 19.4716 140.749 19.0029C140.773 18.5322 140.698 18.0618 140.528 17.6219C140.358 17.1821 140.097 16.7826 139.762 16.4494C139.428 16.1162 139.027 15.8566 138.585 15.6874C138.143 15.5182 137.671 15.4432 137.198 15.4672H135.197V22.5H137.198Z" fill="#0F2230"/>
<path d="M152.492 13.1208H157.96C158.516 13.0804 159.074 13.1499 159.603 13.3254C160.131 13.5008 160.62 13.7786 161.04 14.1429C161.305 14.4034 161.513 14.7152 161.652 15.0591C161.791 15.403 161.857 15.7717 161.847 16.1422V16.1743C161.859 16.699 161.719 17.2161 161.444 17.664C161.17 18.1119 160.772 18.4718 160.297 18.7008C161.66 19.215 162.499 19.9865 162.499 21.5808C162.499 23.7279 160.749 24.795 158.096 24.795H152.492V13.1208ZM157.379 17.865C158.522 17.865 159.245 17.4986 159.245 16.6243V16.5922C159.245 15.8208 158.638 15.39 157.547 15.39H154.965V17.865H157.379ZM158.07 22.59C159.213 22.59 159.904 22.1915 159.904 21.3043C159.904 20.5136 159.316 20.0186 157.967 20.0186H154.971V22.59H158.07Z" fill="#0F2230"/>
<path d="M170.846 19.0157C170.845 18.2032 171.008 17.3986 171.325 16.65C171.642 15.9013 172.107 15.2238 172.693 14.6577C173.278 14.0916 173.972 13.6484 174.733 13.3546C175.494 13.0607 176.306 12.9222 177.122 12.9472C177.932 12.9203 178.74 13.0567 179.497 13.348C180.253 13.6393 180.943 14.0797 181.525 14.6427C182.106 15.2056 182.568 15.8797 182.882 16.6245C183.196 17.3693 183.355 18.1695 183.352 18.9772V19.0157C183.351 19.8272 183.187 20.6303 182.869 21.3775C182.551 22.1247 182.086 22.8007 181.5 23.3654C180.915 23.9301 180.222 24.3721 179.462 24.6652C178.702 24.9583 177.891 25.0964 177.076 25.0714C176.263 25.0993 175.453 24.9628 174.694 24.6702C173.935 24.3776 173.244 23.935 172.662 23.3691C172.08 22.8032 171.619 22.1257 171.307 21.3775C170.995 20.6293 170.838 19.8258 170.846 19.0157ZM180.653 19.0157C180.67 18.5483 180.595 18.082 180.431 17.6437C180.267 17.2054 180.017 16.8036 179.697 16.4614C179.377 16.1192 178.992 15.8433 178.564 15.6496C178.137 15.4558 177.675 15.3479 177.205 15.3322H177.083C176.607 15.3309 176.136 15.4255 175.698 15.6103C175.26 15.7951 174.864 16.0662 174.535 16.4074C174.205 16.7485 173.947 17.1526 173.778 17.5954C173.609 18.0381 173.532 18.5103 173.551 18.9836V19.0157C173.52 19.961 173.867 20.8801 174.516 21.5708C175.165 22.2615 176.063 22.6674 177.012 22.6993H177.122C177.6 22.6998 178.073 22.6037 178.513 22.4166C178.953 22.2295 179.35 21.9554 179.68 21.611C180.01 21.2665 180.267 20.8589 180.434 20.4128C180.601 19.9667 180.676 19.4914 180.653 19.0157Z" fill="#0F2230"/>
<path d="M72.5935 31.5449H76.6414C77.6227 31.4936 78.5849 31.8283 79.3206 32.4771C79.8014 32.9735 80.0659 33.6389 80.0566 34.3285C80.0566 35.8842 78.9784 36.7971 77.4742 37.0671L80.3664 40.9242H79.0753L76.3444 37.2857H73.6523V40.9371H72.587L72.5935 31.5449ZM76.5445 36.3149C77.9584 36.3149 78.9655 35.5821 78.9655 34.3864C78.9655 33.2357 78.081 32.5414 76.5639 32.5414H73.6523V36.3471L76.5445 36.3149Z" fill="#0F2230"/>
<path d="M87.2872 36.2572C87.2681 35.6291 87.3735 35.0034 87.5972 34.4159C87.821 33.8283 88.1588 33.2904 88.5913 32.8328C89.0238 32.3753 89.5426 32.007 90.1181 31.7491C90.6935 31.4912 91.3144 31.3487 91.9451 31.3297C92.5759 31.3107 93.2043 31.4156 93.7943 31.6384C94.3844 31.8612 94.9246 32.1976 95.3841 32.6283C95.8436 33.059 96.2134 33.5756 96.4724 34.1486C96.7314 34.7216 96.8745 35.3398 96.8936 35.9679C96.8936 36.0579 96.8936 36.1479 96.8936 36.2315C96.9055 37.4844 96.4239 38.6921 95.5519 39.5956C94.68 40.499 93.4872 41.0261 92.2295 41.064C90.9717 41.1018 89.7491 40.6474 88.824 39.798C87.8988 38.9487 87.3448 37.7722 87.2807 36.5208C87.2764 36.4329 87.2786 36.3448 87.2872 36.2572ZM95.7961 36.2572C95.8134 35.759 95.7302 35.2624 95.5513 34.7968C95.3725 34.3312 95.1018 33.906 94.7551 33.5464C94.4084 33.1868 93.9928 32.9001 93.5329 32.7032C93.073 32.5063 92.5781 32.4032 92.0775 32.4001C91.5778 32.4012 91.0835 32.5032 90.6244 32.6999C90.1654 32.8965 89.7511 33.1838 89.4066 33.5442C89.0621 33.9047 88.7945 34.3309 88.62 34.7972C88.4454 35.2635 88.3676 35.7601 88.3911 36.2572C88.3739 36.7549 88.4569 37.2509 88.6353 37.7161C88.8137 38.1813 89.0839 38.6062 89.4299 38.9657C89.7759 39.3252 90.1907 39.6121 90.6499 39.8094C91.1091 40.0066 91.6033 40.1103 92.1033 40.1143C92.6033 40.1131 93.0979 40.0112 93.5573 39.8146C94.0167 39.618 94.4314 39.3309 94.7764 38.9705C95.1214 38.6101 95.3896 38.184 95.5648 37.7177C95.7401 37.2514 95.8188 36.7546 95.7961 36.2572Z" fill="#0F2230"/>
<path d="M104.525 31.545H108.54C109.437 31.493 110.319 31.7904 111 32.3743C111.195 32.5718 111.349 32.8058 111.453 33.0629C111.558 33.3199 111.61 33.595 111.607 33.8722C111.62 34.348 111.483 34.816 111.214 35.2095C110.945 35.6031 110.558 35.9022 110.109 36.0643C111.213 36.3986 112.13 37.0414 112.13 38.3272V38.3593C112.13 39.9664 110.767 40.9307 108.708 40.9307H104.525V31.545ZM108.398 35.7236C109.689 35.7236 110.567 35.1514 110.567 34.0522C110.567 33.12 109.831 32.5222 108.476 32.5222H105.616V35.7364L108.398 35.7236ZM108.766 39.9664C110.193 39.9664 111.077 39.3236 111.077 38.2886C111.077 37.2729 110.219 36.6814 108.572 36.6814H105.603V39.9922L108.766 39.9664Z" fill="#0F2230"/>
<path d="M119.212 36.2571C119.212 34.9886 119.718 33.7721 120.619 32.8751C121.519 31.9782 122.741 31.4742 124.015 31.4742C125.289 31.4742 126.511 31.9782 127.411 32.8751C128.312 33.7721 128.818 34.9886 128.818 36.2571C128.818 37.5256 128.312 38.7421 127.411 39.6391C126.511 40.5361 125.289 41.04 124.015 41.04C122.741 41.04 121.519 40.5361 120.619 39.6391C119.718 38.7421 119.212 37.5256 119.212 36.2571ZM127.714 36.2571C127.732 35.7589 127.648 35.2623 127.469 34.7967C127.291 34.3311 127.02 33.9059 126.673 33.5463C126.327 33.1867 125.911 32.9 125.451 32.7031C124.991 32.5062 124.496 32.4031 123.996 32.4C123.496 32.4011 123.002 32.5031 122.543 32.6998C122.085 32.8966 121.671 33.1839 121.327 33.5445C120.983 33.905 120.716 34.3313 120.542 34.7976C120.368 35.2638 120.291 35.7604 120.316 36.2571C120.298 36.7548 120.382 37.2508 120.56 37.716C120.738 38.1812 121.009 38.6061 121.355 38.9656C121.701 39.3251 122.115 39.612 122.575 39.8093C123.034 40.0065 123.528 40.1102 124.028 40.1142C124.527 40.1122 125.021 40.0095 125.48 39.8126C125.939 39.6156 126.352 39.3284 126.697 38.9681C127.041 38.6078 127.309 38.182 127.484 37.7161C127.658 37.2502 127.737 36.7539 127.714 36.2571Z" fill="#0F2230"/>
<path d="M138.296 32.5222H135.145V31.545H142.531V32.5222H139.361V40.9243H138.289L138.296 32.5222Z" fill="#0F2230"/>
<path d="M150 31.545H151.065V40.9243H150V31.545Z" fill="#0F2230"/>
<path d="M158.787 36.2572C158.754 35.005 159.221 33.791 160.087 32.8821C160.953 31.9732 162.145 31.4437 163.403 31.41H163.558C164.239 31.3915 164.916 31.514 165.548 31.7696C166.179 32.0252 166.75 32.4084 167.225 32.895L166.489 33.6729C166.11 33.2691 165.652 32.9467 165.144 32.7256C164.635 32.5045 164.087 32.3893 163.532 32.3872C163.035 32.3926 162.545 32.4978 162.09 32.6965C161.635 32.8951 161.225 33.1831 160.884 33.5432C160.544 33.9033 160.279 34.3282 160.108 34.7923C159.936 35.2564 159.86 35.7503 159.884 36.2443C159.862 36.7379 159.939 37.231 160.111 37.6944C160.284 38.1577 160.548 38.5818 160.888 38.9415C161.228 39.3013 161.638 39.5893 162.092 39.7886C162.546 39.9878 163.036 40.0942 163.532 40.1015C164.106 40.1015 164.674 39.9807 165.198 39.747C165.722 39.5132 166.19 39.1717 166.573 38.745L167.27 39.4265C166.8 39.9573 166.221 40.3801 165.571 40.6654C164.921 40.9507 164.216 41.0917 163.506 41.0786C162.875 41.0815 162.25 40.9578 161.668 40.715C161.086 40.4721 160.559 40.1151 160.119 39.6652C159.678 39.2152 159.333 38.6816 159.105 38.0961C158.876 37.5106 158.768 36.8852 158.787 36.2572Z" fill="#0F2230"/>
<path d="M173.9 39.5551L174.546 38.7772C174.966 39.2042 175.468 39.5421 176.023 39.7708C176.578 39.9995 177.173 40.1142 177.774 40.1079C179.032 40.1079 179.872 39.4651 179.872 38.5136C179.872 37.6393 179.4 37.1443 177.425 36.7265C175.256 36.2572 174.255 35.5629 174.255 34.0201C174.255 32.5608 175.546 31.4486 177.354 31.4486C178.561 31.4167 179.738 31.8286 180.659 32.6058L180.046 33.4093C179.292 32.7571 178.327 32.3966 177.328 32.3936C176.101 32.3936 175.32 33.0365 175.32 33.9108C175.32 34.7979 175.811 35.2865 177.903 35.7365C179.994 36.1865 180.969 36.9515 180.969 38.3851V38.4172C180.969 40.0243 179.62 41.0658 177.741 41.0658C176.312 41.0782 174.935 40.5363 173.9 39.5551Z" fill="#0F2230"/>
</g>
<defs>
<clipPath id="clip0_666_3257">
<rect width="183" height="54" fill="white" transform="translate(0.5)"/>
</clipPath>
</defs>
</svg>
